<?xml version="1.0" encoding="iso-8859-1"?>
<!-- Generator: Adobe Illustrator 19.0.0, SVG Export Plug-In . SVG Version: 6.00 Build 0)  -->
<svg version="1.1" id="Capa_1" xmlns="http://www.w3.org/2000/svg" xmlns:xlink="http://www.w3.org/1999/xlink" x="0px" y="0px"
	 viewBox="0 0 512 512" style="enable-background:new 0 0 512 512;" xml:space="preserve">
<g>
	<g>
		<path d="M512,256c0-19.299-15.701-35-35-35h-6.787l16.893-16.894l-21.213-21.213L427.788,221h-51.782
			c-2.571-8.799-6.083-17.2-10.424-25.085l36.638-36.638h53.891v-30H432.22l4.799-4.799c13.646-13.646,13.646-35.851,0-49.497
			s-35.851-13.648-49.497,0l-4.8,4.8V55.889h-30v53.892l-36.637,36.637c-7.885-4.341-16.286-7.853-25.085-10.424V84.213
			l38.106-38.106l-21.213-21.213L291,41.787V35c0-19.299-15.701-35-35-35s-35,15.701-35,35v6.787l-16.894-16.894l-21.213,21.213
			L221,84.213v51.781c-8.8,2.571-17.2,6.083-25.085,10.424l-36.637-36.637V55.889h-30v23.892l-4.8-4.8
			c-13.646-13.647-35.851-13.646-49.497,0s-13.646,35.851,0,49.497l4.799,4.799H55.889v30h53.891l36.638,36.638
			c-4.341,7.885-7.853,16.285-10.424,25.085H84.212l-38.106-38.106l-21.213,21.213L41.787,221H35c-19.299,0-35,15.701-35,35
			s15.701,35,35,35h6.787l-16.893,16.894l21.213,21.213L84.212,291h51.782c2.571,8.799,6.083,17.2,10.424,25.085l-36.638,36.638
			H55.889v30H79.78l-4.799,4.799c-13.646,13.646-13.646,35.851,0,49.497c6.824,6.824,15.785,10.235,24.749,10.235
			c8.961,0,17.926-3.412,24.748-10.235l4.8-4.8v23.892h30v-53.892l36.637-36.637c7.885,4.341,16.286,7.853,25.085,10.424v51.781
			l-38.106,38.106l21.213,21.213L221,470.213V477c0,19.299,15.701,35,35,35s35-15.701,35-35v-6.787l16.894,16.894l21.213-21.213
			L291,427.787v-51.781c8.8-2.571,17.2-6.083,25.085-10.424l36.637,36.637v53.892h30v-23.892l4.8,4.8
			c6.823,6.823,15.786,10.235,24.748,10.235c8.963,0,17.926-3.412,24.749-10.235c13.646-13.646,13.646-35.851,0-49.497l-4.799-4.799
			h23.891v-30H402.22l-36.638-36.638c4.341-7.885,7.853-16.285,10.424-25.085h51.782l38.106,38.106l21.213-21.213L470.213,291H477
			C496.299,291,512,275.299,512,256z M256,291c-19.299,0-35-15.701-35-35s15.701-35,35-35s35,15.701,35,35S275.299,291,256,291z"/>
	</g>
</g>
<g>
</g>
<g>
</g>
<g>
</g>
<g>
</g>
<g>
</g>
<g>
</g>
<g>
</g>
<g>
</g>
<g>
</g>
<g>
</g>
<g>
</g>
<g>
</g>
<g>
</g>
<g>
</g>
<g>
</g>
</svg>
