<?xml version="1.0"?>
<svg xmlns="http://www.w3.org/2000/svg" xmlns:xlink="http://www.w3.org/1999/xlink" xmlns:svgjs="http://svgjs.com/svgjs" version="1.1" width="512" height="512" x="0" y="0" viewBox="0 0 64 64" style="enable-background:new 0 0 512 512" xml:space="preserve" class=""><g transform="matrix(1,0,0,1,0,0)"><g xmlns="http://www.w3.org/2000/svg"><path d="m8.44 29c3.617 0 6.56-2.942 6.56-6.56 0-1.112-.286-2.214-.826-3.186l-3.814-6.867c-.476-.855-1.38-1.387-2.36-1.387s-1.884.532-2.36 1.388l-3.814 6.867c-.54.972-.826 2.073-.826 3.185 0 3.618 2.942 6.56 6.56 6.56zm-5.44-6.56c0-.773.198-1.539.574-2.214l3.814-6.867c.247-.444.977-.444 1.224 0l3.814 6.867c.376.676.574 1.441.574 2.214 0 2.515-2.045 4.56-4.56 4.56h-.88c-2.515 0-4.56-2.045-4.56-4.56z" fill="#000000" data-original="#000000" style="" class=""/><path d="m14.36 33.388c-.476-.856-1.38-1.388-2.36-1.388s-1.884.532-2.36 1.388l-3.814 6.867c-.54.972-.826 2.073-.826 3.185 0 3.618 2.942 6.56 6.56 6.56h.881c3.617 0 6.56-2.942 6.56-6.56 0-1.112-.286-2.214-.826-3.186zm-1.92 14.612h-.88c-2.515 0-4.56-2.045-4.56-4.56 0-.773.198-1.539.574-2.214l3.814-6.867c.247-.444.977-.444 1.224 0l3.814 6.867c.376.676.574 1.441.574 2.214 0 2.515-2.045 4.56-4.56 4.56z" fill="#000000" data-original="#000000" style="" class=""/><path d="m55.414 13h-20l-3.414-3.414-1.086 1.086-12.574-9.672h-11.34v6h7.532l9.116 10.939-1.062 1.061 3.414 3.414v35.586c0 2.757 2.243 5 5 5h27c2.757 0 5-2.243 5-5v-37.414zm-39.946-8h-6.468v-2h8.66l11.828 9.098-4.421 4.421zm16.532 7.414 1.586 1.586-6.586 6.586-1.586-1.586zm29 45.586c0 1.654-1.346 3-3 3h-27c-1.654 0-3-1.346-3-3v-35.586l7.414-7.414h19.172l6.414 6.414z" fill="#000000" data-original="#000000" style="" class=""/><path d="m30 45.65v11.35c0 1.103.897 2 2 2h25c1.103 0 2-.897 2-2v-34.757l-5.741-5.741zm27-22.579v33.929h-25v-10.65l21.427-26.852z" fill="#000000" data-original="#000000" style="" class=""/><path d="m36.243 17-6.243 6.243v18.582l20.096-24.825zm-4.243 7.071 5.071-5.071h8.833l-13.904 17.175z" fill="#000000" data-original="#000000" style="" class=""/><path d="m49 43c3.309 0 6-2.691 6-6s-2.691-6-6-6-6 2.691-6 6 2.691 6 6 6zm0-10c2.206 0 4 1.794 4 4s-1.794 4-4 4-4-1.794-4-4 1.794-4 4-4z" fill="#000000" data-original="#000000" style="" class=""/><path d="m34 53h21v2h-21z" fill="#000000" data-original="#000000" style="" class=""/><path d="m34 49h2v2h-2z" fill="#000000" data-original="#000000" style="" class=""/><path d="m38 49h17v2h-17z" fill="#000000" data-original="#000000" style="" class=""/><path d="m34 45h21v2h-21z" fill="#000000" data-original="#000000" style="" class=""/></g></g></svg>
