<?xml version="1.0"?>
<svg xmlns="http://www.w3.org/2000/svg" xmlns:xlink="http://www.w3.org/1999/xlink" xmlns:svgjs="http://svgjs.com/svgjs" version="1.1" width="512" height="512" x="0" y="0" viewBox="0 0 511.999 511.999" style="enable-background:new 0 0 512 512" xml:space="preserve"><g>
<g xmlns="http://www.w3.org/2000/svg">
	<g>
		<path d="M293.6,37.6H91.789c-9.161,0-16.588,7.427-16.588,16.588s7.427,16.588,16.588,16.588h86.226    c-18.192,11.393-34.595,25.385-48.68,41.46H16.588C7.427,112.237,0,119.665,0,128.826c0,9.161,7.427,16.588,16.588,16.588h88.75    c-19.138,32.456-30.138,70.258-30.138,110.585c0,46.924,14.879,90.438,40.161,126.077H68.295c-9.161,0-16.588,7.427-16.588,16.588    c0,9.161,7.427,16.588,16.588,16.588h76.019c10.343,9.702,21.628,18.408,33.701,25.969H18.299    c-9.161,0-16.588,7.427-16.588,16.588c0,9.161,7.427,16.588,16.588,16.588H293.6c120.427,0,218.399-97.974,218.399-218.399    S414.026,37.6,293.6,37.6z M293.6,441.223c-102.132,0-185.222-83.09-185.222-185.223S191.468,70.777,293.6,70.777    s185.222,83.09,185.222,185.222S395.733,441.223,293.6,441.223z" fill="#fdcb6e" data-original="#000000" style=""/>
	</g>
</g>
<g xmlns="http://www.w3.org/2000/svg">
	<g>
		<path d="M293.6,120.507c-74.711,0-135.493,60.782-135.493,135.493c0,44.553,21.619,84.15,54.915,108.86    c0.305,0.258,0.608,0.518,0.937,0.755c0.37,0.269,0.749,0.52,1.132,0.754c22.164,15.811,49.269,25.123,78.509,25.123    s56.344-9.312,78.509-25.123c0.384-0.234,0.762-0.485,1.132-0.754c0.328-0.239,0.632-0.499,0.937-0.755    c33.295-24.71,54.915-64.306,54.915-108.86C429.093,181.29,368.311,120.507,293.6,120.507z M310.188,155.036    c32.372,5.301,59.681,25.841,74.29,53.994l-42.956,13.958c-7.461-10.799-18.472-18.958-31.333-22.789V155.036z M318.645,255.999    c0,13.81-11.235,25.045-25.045,25.045s-25.045-11.234-25.045-25.045c0-13.81,11.235-25.045,25.045-25.045    S318.645,242.189,318.645,255.999z M277.011,155.036v45.163c-12.863,3.831-23.872,11.99-31.334,22.789l-42.955-13.958    C217.332,180.877,244.641,160.336,277.011,155.036z M220.867,327.886c-18.278-18.492-29.583-43.893-29.583-71.887    c0-5.242,0.398-10.393,1.162-15.425l42.969,13.962c-0.012,0.488-0.038,0.972-0.038,1.463c0,13.296,4.49,25.558,12.02,35.371    L220.867,327.886z M293.6,358.315c-16.501,0-32.099-3.93-45.915-10.899l26.536-36.522c6.066,2.148,12.586,3.329,19.379,3.329    s13.313-1.181,19.379-3.329l26.536,36.522C325.699,354.383,310.101,358.315,293.6,358.315z M366.332,327.886l-26.53-36.515    c7.53-9.813,12.02-22.075,12.02-35.371c0-0.491-0.024-0.975-0.038-1.463l42.969-13.962c0.764,5.032,1.162,10.183,1.162,15.425    C395.916,283.993,384.612,309.393,366.332,327.886z" fill="#fdcb6e" data-original="#000000" style=""/>
	</g>
</g>
<g xmlns="http://www.w3.org/2000/svg">
</g>
<g xmlns="http://www.w3.org/2000/svg">
</g>
<g xmlns="http://www.w3.org/2000/svg">
</g>
<g xmlns="http://www.w3.org/2000/svg">
</g>
<g xmlns="http://www.w3.org/2000/svg">
</g>
<g xmlns="http://www.w3.org/2000/svg">
</g>
<g xmlns="http://www.w3.org/2000/svg">
</g>
<g xmlns="http://www.w3.org/2000/svg">
</g>
<g xmlns="http://www.w3.org/2000/svg">
</g>
<g xmlns="http://www.w3.org/2000/svg">
</g>
<g xmlns="http://www.w3.org/2000/svg">
</g>
<g xmlns="http://www.w3.org/2000/svg">
</g>
<g xmlns="http://www.w3.org/2000/svg">
</g>
<g xmlns="http://www.w3.org/2000/svg">
</g>
<g xmlns="http://www.w3.org/2000/svg">
</g>
</g></svg>
